
      <svg viewBox="0 0 78 47" fill="none" xmlns="http://www.w3.org/2000/svg">
        <path
          d="M45.4302 43.236C47.4032 40.2478 47.0744 36.187 44.4437 33.5563C41.4372 30.5498 36.5628 30.5498 33.5563 33.5563C30.5498 36.5628 30.5498 41.4372 33.5563 44.4437C33.9321 44.8195 34.3371 45.1484 34.764 45.4302C37.7522 47.4032 41.813 47.0744 44.4437 44.4437C44.8195 44.0679 45.1484 43.6629 45.4302 43.236ZM33.5563 2.25486L2.25486 33.5563C-0.751621 36.5628 -0.751621 41.4372 2.25486 44.4437C5.26135 47.4502 10.1358 47.4502 13.1423 44.4437L13.1478 44.4382L39 18.586L64.8577 44.4437C67.8642 47.4502 72.7387 47.4502 75.7451 44.4437C78.7516 41.4372 78.7516 36.5628 75.7451 33.5563L75.7374 33.5485L44.4489 2.26002C44.4472 2.2583 44.4454 2.25658 44.4437 2.25486C42.9405 0.751619 40.9702 -5.66244e-07 39 0C38.344 1.88547e-07 37.6879 0.0833355 37.0491 0.250006C35.7694 0.583881 34.559 1.25217 33.5563 2.25486Z"
          fill="#5A53FB"
        />
      </svg>
